<svg xmlns="http://www.w3.org/2000/svg" width="950.1" height="222.34"><path d="M249.09 154.86c5.22-.89 23.37 5.14 21.09 10.5l-5.3 5.47c-1.56 1.93-8.55-6.18-15.53-5.12-25.37.15-25.41 40.18.09 40.26 7.1.98 13.02-6.44 15.44-4.95.67 1.32 7.69 6.03 5.3 7.9-18.86 18.84-53.24 3.7-52.41-22.74 0-17.35 13.96-31.32 31.32-31.32m40.71 2.51c-.21-2.98 8.24-1.19 9.72-1.65.86 0 1.64.78 1.64 1.65v57.45c.2 2.97-8.24 1.18-9.72 1.64-.87 0-1.65-.78-1.65-1.64v-57.45zm43.57 8.76c-15.43-.85-15.27 3.8-14.93-8.77-2.13-3.56 39.03-.84 39.57-1.65 3-.18 1.17 7.28 1.65 8.76 0 .87-.7 1.65-1.65 1.65h-13.28v48.68c.21 2.96-8.24 1.2-9.72 1.65-.87 0-1.65-.78-1.65-1.65v-48.68zm58.06 21.09l-19.78-28.98c-.69-1.13 0-2.52 1.39-2.52 1.12.3 9.77-.75 10.24.78l13.88 19.96 13.89-19.96c.26-.35.69-.78 1.39-.78h8.93c1.39 0 2.08 1.39 1.39 2.52l-20.04 28.89c-.73 1 1.8 30.8-1.65 29.33-1.48-.45-9.88 1.32-9.63-1.65v-27.59zm66.75-29.24c-1.74-3.94 8.85-1.7 10.33-2.26.78 0 1.3.52 1.47.95l16.66 37.31h.61l16.66-37.31c.18-.44.69-.95 1.47-.95 1.45.59 12.08-1.72 10.33 2.25l-26.9 58.39c-.5 1.35-3.32 1.34-3.82 0l-26.81-58.39zm73.68-.61c-1.83-3.57 36.27-.85 36.96-1.65 3-.18 1.18 7.28 1.65 8.76 1.52 3.43-26.44.94-27.33 1.65v14.23h21.43c2.97-.16 1.2 7.37 1.65 8.85 0 .95-.79 1.65-1.65 1.65h-21.43v15.18h25.68c3-.18 1.18 7.28 1.65 8.77 1.79 3.57-36.25.84-36.96 1.64-4.04 0-.53-57.11-1.65-59.09zm59.28-.95c0-1.93 2.55-1.55 3.82-1.56l36.09 38.35h.09v-35.84c-.27-2.97 8.18-1.19 9.63-1.64.87 0 1.65.78 1.65 1.64v58.4c0 1.87-2.47 1.57-3.73 1.56l-36.27-39.82h-.09c-.82.82 1.94 40.81-1.65 38.96-1.5-.45-9.72 1.31-9.54-1.64v-58.4zm83.49 9.71c-15.43-.85-15.27 3.8-14.93-8.77-2.13-3.56 39.03-.84 39.57-1.65 3-.18 1.17 7.28 1.65 8.76 0 .87-.7 1.65-1.65 1.65h-13.28v48.68c.21 2.96-8.24 1.2-9.72 1.65-.87 0-1.65-.78-1.65-1.65v-48.68zm42.71-8.76c0-.87.78-1.65 1.65-1.65 1.55.47 10.1-1.35 9.89 1.65v35.49c0 7.38 5.03 13.19 12.58 13.19s12.67-5.81 12.67-13.1v-35.57c-.26-2.99 8.42-1.18 9.89-1.65.87 0 1.65.78 1.65 1.65-1.16 20.59 7.92 59.46-24.21 59.96-32-.5-22.98-39.44-24.12-59.96zm71.51 0c-1.56-3.39 25.6-.95 26.46-1.65 20.99-.04 26.03 29.17 6.08 36.19l11.89 22.04c2.1 4.31-9 1.95-10.58 2.52-1.21 1.64-12.43-23.58-12.93-23.78h-9.64v22.13c0 .87-.78 1.65-1.65 1.65-1.48-.45-9.88 1.32-9.63-1.65v-57.44zm25.51 26.03c10.99-.15 11.4-17.13 0-17.27h-14.14v17.27h14.14zm40.54-26.03c-1.83-3.57 36.27-.85 36.96-1.65 3-.18 1.18 7.28 1.65 8.76 1.52 3.43-26.44.94-27.33 1.65v14.23h21.43c2.97-.16 1.2 7.37 1.65 8.85 0 .95-.79 1.65-1.65 1.65h-21.43v15.18h25.68c3-.18 1.18 7.28 1.65 8.77 1.79 3.57-36.25.84-36.96 1.64-4.05-.01-.53-57.1-1.65-59.09zm55.72 50.59c6.43-13.3 5.6-1.49 19.18-.61 12.59-1.51 9.01-13.7-3.12-17.08-8.16-3.3-16.31-8.51-16.31-18.75-.24-18.45 25.84-20.41 36.88-10.85 2.74 1.74-2.08 6.14-2.78 7.81-2.87 4.02-7.95-4.05-15.09-3.73-12.3 1.68-8.71 12.34 2.6 15.79 8.41 3.39 18.13 8.41 18.13 19.61-.28 20.34-29.74 20.54-39.05 10.41-.78-.78-1.21-1.21-.43-2.6" fill="#4a4f54"/><path fill="#80bc00" d="M136.4 211.52H10.82v-80.76l34.36-20.39V97.72L0 124.59v97.75h136.4v-10.82z"/><path fill="#0091b3" d="M65.88 15.58l84.23 29.99v165.95h-.17v10.82h10.99l.94-184.6L56 0l-.85 84.53 10.73 5.9V15.58z"/><path d="M109.21 175.72v-49.3L55.15 95.6l.09 80.12h53.97zm-43.16-61.8l32.33 18.67v32.31H66.05v-50.98z" fill="#ff595a"/></svg>